<svg width="30" height="30" viewBox="0 0 30 30" fill="none" xmlns="http://www.w3.org/2000/svg">
<g id="Group 267">
<circle id="Ellipse 359" cx="15" cy="15" r="15" fill="#538F74" fill-opacity="0.8"/>
<g id="Group">
<path id="Vector" fill-rule="evenodd" clip-rule="evenodd" d="M20.031 7.9515C20.1494 7.96348 20.2633 7.99982 20.3642 8.05781C20.4652 8.11581 20.5506 8.19398 20.6142 8.2865C23.15 11.9766 22.7673 15.894 20.6491 18.3613C19.5912 19.5928 18.1054 20.4522 16.3723 20.7064C14.8604 20.927 13.2082 20.6802 11.5433 19.8791C11.3903 20.3226 11.2818 20.753 11.2192 21.1586C11.1887 21.3492 11.0774 21.5209 10.9095 21.6362C10.7416 21.7515 10.5309 21.8009 10.3234 21.7738C10.1159 21.7466 9.92861 21.6451 9.80243 21.4913C9.67625 21.3375 9.6215 21.144 9.65014 20.9533C9.76022 20.2775 9.94666 19.6141 10.2064 18.9738C8.98846 17.7431 8.65564 16.186 8.80382 14.795C8.96706 13.2606 9.72859 11.7887 10.7199 11.0292C12.0449 10.0147 13.4364 9.59811 14.644 9.39419C15.1718 9.31025 15.7032 9.24683 16.2368 9.20412C16.6164 9.16916 17.0039 9.14585 17.3748 9.06138C17.9237 8.93939 18.4484 8.73885 18.9295 8.46711C19.2798 8.26611 19.5785 7.90489 20.031 7.9515ZM12.1384 18.5201C13.0196 16.8691 14.4602 15.2866 16.3359 14.4243C16.4298 14.382 16.5137 14.3231 16.5827 14.2509C16.6517 14.1786 16.7044 14.0946 16.7379 14.0035C16.7714 13.9125 16.7849 13.8162 16.7778 13.7203C16.7706 13.6244 16.7428 13.5308 16.696 13.4448C16.6493 13.3588 16.5845 13.2822 16.5054 13.2194C16.4262 13.1565 16.3344 13.1087 16.235 13.0786C16.1357 13.0486 16.0309 13.0369 15.9266 13.0442C15.8223 13.0516 15.7206 13.0778 15.6275 13.1215C13.5608 14.0711 11.9775 15.7134 10.9481 17.4649C11.1527 17.7712 11.4065 18.0475 11.701 18.2842C11.8478 18.3681 11.9931 18.4468 12.1384 18.5201Z" fill="white"/>
</g>
</g>
</svg>
