<svg width="35" height="35" viewBox="0 0 35 35" fill="none" xmlns="http://www.w3.org/2000/svg">
<g id="&#236;&#157;&#180;&#236;&#160;&#132;&#237;&#142;&#152;&#236;&#157;&#180;&#236;&#167;&#128;&#235;&#161;&#156;">
<path id="Vector" fill-rule="evenodd" clip-rule="evenodd" d="M11.5792 19.0458C11.1695 18.6357 10.9395 18.0797 10.9395 17.5C10.9395 16.9203 11.1695 16.3643 11.5792 15.9541L19.8275 7.70289C20.2379 7.29272 20.7944 7.06236 21.3746 7.0625C21.6619 7.06257 21.9464 7.11922 22.2118 7.22922C22.4772 7.33923 22.7183 7.50043 22.9214 7.70362C23.1245 7.90682 23.2856 8.14802 23.3954 8.41347C23.5053 8.67892 23.5618 8.96341 23.5618 9.2507C23.5617 9.53799 23.5051 9.82246 23.3951 10.0879C23.285 10.3532 23.1238 10.5944 22.9207 10.7975L16.2196 17.5L22.9221 24.2025C23.1311 24.4042 23.2979 24.6455 23.4127 24.9123C23.5274 25.1791 23.5879 25.4661 23.5906 25.7566C23.5932 26.047 23.538 26.3351 23.4282 26.604C23.3183 26.8729 23.156 27.1172 22.9507 27.3227C22.7454 27.5282 22.5012 27.6907 22.2324 27.8008C21.9637 27.911 21.6756 27.9664 21.3852 27.9641C21.0947 27.9617 20.8077 27.9015 20.5407 27.7869C20.2738 27.6724 20.0323 27.5059 19.8304 27.2971L11.5763 19.0458H11.5792Z" fill="black"/>
</g>
</svg>
